<?xml version="1.0"?>
<svg xmlns="http://www.w3.org/2000/svg" viewBox="0 0 24 24" enable-background="new 0 0 24 24">
    <path style="text-indent:0;text-align:start;line-height:normal;text-transform:none;block-progression:tb;-inkscape-font-specification:Bitstream Vera Sans" d="M 11 2 L 11 4 L 13 4 L 13 2 L 11 2 z M 8 5 L 8 8 L 6 8 L 6 10.8125 C 6 11.6125 6.39375 12.29375 7.09375 12.59375 L 12 15 L 16.90625 12.59375 C 17.60625 12.19375 18 11.5125 18 10.8125 L 18 8 L 16 8 L 16 5 L 8 5 z M 2 9 L 2 19 C 2 20.645455 3.3545455 22 5 22 L 19 22 C 20.645455 22 22 20.645455 22 19 L 22 9 L 20 9 L 20 15.75 L 17.3125 13.5 L 15.3125 14.5 L 20 18.53125 L 20 19 C 20 19.554545 19.554545 20 19 20 L 5 20 C 4.4454545 20 4 19.554545 4 19 L 4 18.53125 L 8.6875 14.5 L 6.6875 13.5 L 4 15.75 L 4 9 L 2 9 z" overflow="visible" enable-background="accumulate" font-family="Bitstream Vera Sans"/>
</svg>
